<svg width="106" height="44" viewBox="0 0 106 44" fill="none" xmlns="http://www.w3.org/2000/svg">
<path fill-rule="evenodd" clip-rule="evenodd" d="M26.2433 5.05119C23.0331 7.05949 20.4502 9.93379 18.7893 13.3459C18.6605 13.6385 18.6131 14.074 18.7554 14.0263C37.5192 7.90228 35.3982 37.0732 17.6915 33.2763C17.2646 37.9442 16.675 40.0808 15.3197 42.9863C15.2249 43.1972 14.9606 43.3742 14.7912 43.3197C14.6999 43.2927 14.6221 43.2322 14.5732 43.1503C14.5242 43.0684 14.5077 42.971 14.5269 42.8774C15.0961 39.7542 15.6111 36.6309 13.2123 33.0517C11.4572 30.4592 4.74182 31.405 2.4514 28.7785C-3.87774 21.4705 2.9393 9.56257 12.7515 14.8361C11.7283 11.3454 10.8406 5.90175 12.8735 0.771154C12.9141 0.652004 12.9762 0.541315 13.0564 0.444538C13.2868 0.192771 13.8357 0.444538 14.1542 0.573824C14.9064 0.811981 15.3943 1.32232 16.1397 1.56728C16.6005 2.06401 15.7805 2.53352 15.9161 3.36367C16.5259 2.56074 16.919 1.52645 17.4814 0.641869C18.6481 0.985599 19.6712 1.70235 20.3953 2.68322C19.8328 4.04412 19.0942 5.27574 18.5995 6.7251C19.6837 5.46626 22.0893 3.18675 24.3933 2.24093C25.281 2.62198 26.2704 4.67694 26.2433 5.05119Z" fill="#9FD2BE"/>
<path d="M88.417 33.5077C88.5661 33.1131 88.6542 32.7592 88.81 32.3374C88.9049 32.0584 88.9794 31.7726 89.0608 31.4936C89.2166 30.9492 89.3589 30.4049 89.5351 29.8673C89.7113 29.3298 90.4567 26.8801 90.5312 26.5739C90.6058 26.2677 90.7074 25.8935 90.7481 25.7914C91.0056 25.0633 91.0191 24.8592 91.2495 24.0223C91.3715 23.5936 91.6358 22.5933 91.6629 22.4708C91.7239 22.2055 92.0085 21.2324 92.1982 20.7357C92.3066 20.4499 92.4015 20.1913 92.5167 19.9123C92.606 19.6791 92.7102 19.4518 92.8284 19.2319C92.9775 18.9597 92.9843 18.9121 93.4722 18.9189C93.7099 18.9048 93.9484 18.9162 94.1837 18.9529C94.3125 19.0482 94.326 19.3476 94.3734 19.5925C94.4615 20.0348 94.5022 20.4771 94.5835 20.9194C94.6648 21.3617 94.6513 21.5999 94.7055 22.151C94.7055 22.4572 94.7732 22.8315 94.8003 23.09C94.8275 23.3486 94.8003 23.4847 94.8003 23.648C94.8143 23.8746 94.8143 24.1019 94.8003 24.3285C94.8003 24.5598 94.8546 24.8252 94.8613 25.0633C94.9088 25.9343 94.9291 26.3018 95.0104 26.9142C95.0511 27.234 95.0579 27.5606 95.0782 27.8872C95.1121 28.4248 95.0782 28.7786 95.1459 29.3162C95.2137 29.8537 95.1459 30.2348 95.2205 30.82C95.3075 31.6153 95.3505 32.415 95.3492 33.2151C95.3492 34.1678 95.4577 34.8822 95.4848 35.8349C95.4848 36.352 95.5322 36.876 95.5796 37.3931C95.5796 37.6381 95.5796 37.883 95.6542 38.5158C95.6948 38.9717 95.7152 39.1351 95.7152 39.2916C95.7152 39.4481 95.3763 39.3664 95.0375 39.3664H94.1634H94.0482C93.9262 39.3188 93.933 39.1827 93.9126 38.9581C93.872 38.2777 93.8584 37.8694 93.8313 37.1822C93.8042 36.4949 93.7636 35.5015 93.75 34.855C93.7365 34.2086 93.6823 33.916 93.6619 33.1743C93.6619 32.9498 93.6213 32.3237 93.6077 31.8134C93.6077 30.6498 93.5535 30.6975 93.5399 30.0578C93.5399 29.5271 93.4383 29.3094 93.4044 28.2274C93.4044 27.6627 93.3231 27.1659 93.2892 26.6148C93.2418 25.7506 93.2147 25.6485 93.1943 25.2539V24.7027C93.1943 24.3761 93.1943 24.3148 93.1605 24.0223C93.1729 23.9069 93.1729 23.7906 93.1605 23.6752C93.1605 23.5255 93.1605 23.4983 93.0995 23.4847C93.0385 23.4711 93.0114 23.7365 92.9843 23.8453C92.7945 24.6551 92.7132 24.9068 92.4354 25.8867C92.2863 26.4447 92.1508 26.7917 91.9678 27.4517C91.7849 28.1118 91.6832 28.4044 91.4867 28.9963C91.4122 29.2209 91.1208 30.1939 91.053 30.4185C90.8633 31.0377 90.8429 31.201 90.6397 31.8202L90.5109 32.2557C90.4296 32.5007 90.0975 33.7051 89.7723 34.6849C89.6435 35.0932 89.5216 35.4538 89.3657 35.8621C89.2776 36.0866 88.9591 36.1955 88.6881 36.2363C88.4178 36.2942 88.1384 36.2942 87.8681 36.2363C87.756 36.1962 87.6556 36.1285 87.5763 36.0393C87.497 35.9501 87.4412 35.8424 87.4141 35.726C87.3192 35.379 87.1702 35.1136 87.0753 34.7666C86.9533 34.3039 86.8313 34.2018 86.5671 33.3308C86.5196 33.1811 86.3163 32.5347 86.2486 32.3306C86.1808 32.1264 86.0588 31.7862 86.0046 31.6501C85.8962 31.3983 85.6116 30.5342 85.2457 29.5203C85.1034 29.0372 84.9136 28.4928 84.7239 28.0233C84.5341 27.5538 84.4189 27.2408 84.2631 26.8529L84.0259 26.1997C83.8836 25.7914 83.7549 25.5192 83.5922 25.0906C83.5177 24.8932 83.2263 24.1243 83.1314 23.9406C83.1314 24.1992 83.0772 24.7844 83.0705 24.9681C83.023 25.5669 83.0027 26.1589 82.9553 26.7577C82.9553 26.8393 82.9553 26.955 82.9553 27.0366C82.9553 27.4994 82.8672 27.928 82.8468 28.5132C82.8468 28.9759 82.7858 29.5271 82.7587 29.9898C82.7316 30.4525 82.7587 30.7315 82.7249 31.1262C82.7249 31.8747 82.6029 32.6163 82.6029 33.1675C82.6029 34.4331 82.5012 34.9367 82.4403 36.0186C82.3793 37.1005 82.3589 37.6313 82.2776 38.822C82.2927 38.994 82.2574 39.1667 82.176 39.3188C82.1014 39.4413 81.7626 39.4004 81.6068 39.4004C81.2721 39.4179 80.9366 39.4065 80.6039 39.3664C80.4954 39.2916 80.6039 39.1691 80.6039 38.8697C80.6039 38.2913 80.7258 37.4475 80.7529 36.9304C80.7936 36.1887 80.8681 35.447 80.9088 34.821C80.9494 34.195 80.9901 33.9296 81.0037 33.3853C81.0037 33.256 81.0037 32.9089 81.0037 32.7796C81.0037 32.4598 81.0511 32.0992 81.0714 31.793C81.0714 31.3031 81.1189 31.1125 81.146 30.3572C81.146 29.9966 81.1934 29.6768 81.2002 29.2889C81.2747 28.3975 81.2883 27.7239 81.3222 26.9074C81.3222 26.5331 81.3831 26.118 81.4102 25.7506C81.4509 25.2403 81.4509 24.8048 81.4848 24.3012C81.5254 23.6208 81.5458 23.2806 81.6 22.3211C81.6474 21.7836 81.7016 21.3005 81.7423 20.9602C81.8168 20.3274 81.871 20.0893 81.9117 19.6742C81.9523 19.2591 82.0337 19.1434 82.2099 19.0414C82.3842 18.9556 82.5796 18.9225 82.7723 18.9461C82.8863 18.9391 83.0007 18.9506 83.1111 18.9801C83.3889 19.0754 83.4703 19.5585 83.5719 19.7967C83.6736 20.0348 83.66 20.1165 83.782 20.4771C83.843 20.6472 83.9039 20.8854 83.9988 21.1576C84.0937 21.4297 84.1818 21.6747 84.2699 21.9061C84.358 22.1374 84.4596 22.5865 84.5748 22.8995C84.69 23.2125 84.7171 23.3282 84.8391 23.6344C84.9611 23.9406 85.2253 24.6959 85.2457 24.7639C85.3609 25.0633 85.5032 25.4444 85.6251 25.7166C86.0859 26.9278 86.5196 28.0845 86.5671 28.1934C86.689 28.4996 86.7432 28.7582 86.8584 29.0644C86.9736 29.3706 87.1092 29.7448 87.2447 30.1463C87.4819 30.7723 87.6445 31.3235 87.9223 32.1264C88.0443 32.4394 88.2815 33.1471 88.417 33.5077Z" fill="#4A4640"/>
<path d="M52.373 20.2185C52.373 20.3342 52.373 20.4566 52.2781 20.477L51.7022 20.5111C51.0308 20.5037 50.364 20.6238 49.737 20.8649C49.4067 20.9808 49.0924 21.1386 48.8019 21.3344C48.5308 21.5409 48.3125 21.8091 48.1649 22.1169C47.9778 22.4445 47.8386 22.7974 47.7515 23.1648C47.5953 23.7674 47.4887 24.3819 47.433 25.002C47.433 25.3967 47.311 26.0227 47.2839 26.4174C47.2365 27.1659 47.1823 28.1049 47.1755 28.8602C47.1687 29.6155 47.1755 30.3504 47.1755 31.0989C47.1755 31.7453 47.2297 32.2761 47.2772 32.9225C47.2772 33.2627 47.3856 34.0656 47.4534 34.6576C47.4981 35.2494 47.6741 35.8237 47.9684 36.3384C48.1347 36.596 48.3405 36.8257 48.5782 37.0188C48.8204 37.266 49.1249 37.4424 49.4592 37.5291C50.0303 37.6457 50.6173 37.6618 51.1939 37.5768C51.489 37.5381 51.7811 37.479 52.0681 37.3999C52.3052 37.3318 52.373 37.6788 52.4679 37.9034C52.5628 38.1279 52.5356 38.1483 52.5831 38.2912C52.6368 38.423 52.6777 38.5598 52.7051 38.6995C52.7051 38.7812 52.7728 38.8356 52.7051 38.8764C52.2465 39.0983 51.7539 39.2409 51.2481 39.2983C50.6139 39.3829 49.9714 39.3829 49.3372 39.2983C49.0688 39.263 48.8037 39.2061 48.5444 39.1282C47.7554 38.8351 47.0841 38.29 46.6334 37.5768C46.3217 37.0627 46.093 36.5023 45.9558 35.9165C45.8035 35.122 45.7151 34.3164 45.6915 33.5077C45.6915 33.2627 45.6915 32.8272 45.6508 32.5959C45.6508 32.1332 45.6034 31.9154 45.5898 31.5548C45.5898 31.3575 45.5898 31.1941 45.5898 30.9968C45.5898 30.7995 45.5898 30.5409 45.5898 30.3164C45.5898 30.2007 45.5898 29.2617 45.5898 28.7717C45.5898 28.3975 45.6237 28.0096 45.5898 27.6218C45.5898 27.3836 45.5898 27.1591 45.5898 26.9413C45.5898 26.5467 45.6644 25.907 45.705 25.5124C45.7457 25.1177 45.7728 24.655 45.827 24.1515C45.8812 23.6479 46.01 22.9199 46.0913 22.5592C46.1656 22.2714 46.2608 21.9894 46.3759 21.7155C46.4843 21.4705 46.6266 21.2323 46.7554 20.9942C46.9044 20.7687 47.0673 20.5527 47.2433 20.3478C47.4813 20.0513 47.7763 19.806 48.1107 19.6265C49.2696 19.0676 50.557 18.8325 51.8377 18.946C52.0884 18.946 52.1697 19.1161 52.2443 19.3747C52.3188 19.6333 52.3256 19.9803 52.373 20.2185Z" fill="#4A4640"/>
<path d="M62.1039 38.2913C62.1039 38.1075 61.9887 37.2978 61.9548 37.0869C61.8396 36.4064 61.7921 35.9573 61.6973 35.2633C61.6227 34.7257 61.5211 34.2086 61.4601 33.6642C61.372 32.8749 61.25 32.0447 61.1687 31.2554C61.0874 30.4661 61.0129 29.7244 60.918 28.9555C60.8028 28.0233 60.6808 27.0978 60.5453 26.1656C60.464 25.5804 60.3962 25.0701 60.3081 24.4849C60.22 23.8997 60.1387 23.3077 60.0642 22.7566C59.9896 22.2054 59.7999 21.3957 59.7186 20.8173C59.6373 20.2389 59.5898 19.6673 59.4882 19.2727C59.4882 19.1842 59.3662 19.0005 59.2849 18.9869C58.8088 18.9229 58.328 18.9024 57.8483 18.9256C57.4485 18.9256 57.3333 19.0481 57.2587 19.3747C57.1842 19.7013 57.1503 20.0552 57.069 20.5451C57.0216 20.8105 56.9538 21.2256 56.9199 21.4705C56.8522 22.0149 56.8047 22.3143 56.7099 22.8314C56.7099 23.0424 56.6353 23.2941 56.5947 23.5119C56.554 23.7296 56.4862 24.0903 56.4524 24.2468C56.371 24.6074 56.1745 25.6689 56.1068 26.152C56.039 26.6351 55.8696 27.581 55.856 27.6694C55.8154 28.0233 55.7815 28.3499 55.7341 28.7241C55.7107 29.0959 55.654 29.4649 55.5646 29.8265C55.4427 30.1939 55.3004 31.3098 55.2597 31.4868C55.1852 31.8474 55.131 32.2489 55.0564 32.6027C54.9819 32.9565 54.8057 33.9636 54.765 34.2017C54.6905 34.6713 54.3856 36.3316 54.3042 36.7807C54.1687 37.4611 54.0535 38.0599 53.9654 38.5362C53.8951 38.7918 53.8519 39.0541 53.8367 39.3187C53.9248 39.4208 54.3788 39.3868 54.7244 39.3868C55.2597 39.3868 55.402 39.3868 55.4969 39.1078C55.6256 38.5634 55.7476 37.9238 55.8628 37.1481C55.9306 36.6786 56.0254 36.2431 56.0932 35.7872C56.1473 35.4215 56.2265 35.06 56.3304 34.7053L57.4146 34.7665C58.4243 34.821 59.9557 34.821 59.9557 34.821C59.9911 34.9244 60.0138 35.0318 60.0235 35.1408C60.0235 35.3993 60.0845 35.6579 60.1116 35.9165C60.1387 36.1751 60.1726 36.5017 60.2132 36.7943C60.3284 37.7197 60.3962 38.3593 60.5114 39.1078C60.5114 39.3528 60.5859 39.4004 60.7621 39.4072C60.9383 39.414 61.5482 39.4072 61.6702 39.4072C62.0768 39.4072 62.2936 39.4752 62.2326 39.101C62.1919 38.9173 62.1445 38.5294 62.1039 38.2913ZM59.8202 33.1811C59.1426 33.1811 58.3362 33.1402 57.6179 33.0994C57.2603 33.1006 56.9029 33.0825 56.5472 33.045C56.5607 32.7309 56.6038 32.4187 56.676 32.1128C56.8386 31.0104 57.0012 30.1258 57.1503 29.1188C57.313 27.996 57.4824 26.8665 57.6653 25.7165C57.7602 25.1518 57.8618 24.4509 57.9635 23.8385C57.9635 23.7772 58.2007 22.879 58.3091 22.3483C58.3129 22.3117 58.3261 22.2768 58.3475 22.247C58.3689 22.2171 58.3977 22.1934 58.4311 22.1782C58.4717 22.1782 58.5259 22.1782 58.5734 22.4163C58.6547 22.9131 58.736 23.7024 58.7902 24.2059C58.8647 24.9408 59.0816 26.7576 59.1358 27.0706C59.19 27.3836 59.3391 28.7105 59.3662 28.9827C59.8067 33.113 59.7863 32.5891 59.8202 33.1811Z" fill="#4A4640"/>
<path d="M44.587 38.2913C44.587 38.1075 44.465 37.2978 44.4312 37.0869C44.316 36.4064 44.2685 35.9573 44.1737 35.2633C44.0991 34.7257 43.9975 34.2086 43.9365 33.6642C43.8484 32.8749 43.7264 32.0447 43.6451 31.2554C43.5638 30.4661 43.4892 29.7244 43.3944 28.9555C43.2792 28.0233 43.1572 27.0978 43.0284 26.1656C42.9404 25.5804 42.8726 25.0701 42.7845 24.4849C42.6964 23.8997 42.6219 23.3077 42.5405 22.7566C42.4592 22.2054 42.283 21.3957 42.195 20.8173C42.1069 20.2389 42.0662 19.6673 41.9713 19.2727C41.9713 19.1842 41.8426 19.0005 41.7613 18.9869C41.2852 18.9229 40.8044 18.9024 40.3247 18.9256C39.9316 18.9256 39.8097 19.0481 39.7351 19.3747C39.6606 19.7013 39.6335 20.0552 39.5454 20.5451C39.498 20.8105 39.4302 21.2256 39.3963 21.4705C39.3285 22.0149 39.2811 22.3143 39.1862 22.8314C39.1862 23.0424 39.1117 23.2941 39.071 23.5119C39.0304 23.7296 38.9626 24.0903 38.9287 24.2468C38.8474 24.6074 38.6509 25.6689 38.5831 26.152C38.5154 26.6351 38.346 27.581 38.3392 27.6694C38.2918 28.0233 38.2579 28.3499 38.2104 28.7241C38.1792 29.0897 38.1157 29.4517 38.0207 29.806C37.8987 30.1735 37.7564 31.2894 37.7158 31.4663C37.6412 31.827 37.587 32.2284 37.5125 32.5823C37.4379 32.9361 37.2617 33.9432 37.2211 34.1813C37.1465 34.6508 36.8416 36.3111 36.7603 36.7602C36.6248 37.4407 36.5096 38.0395 36.4215 38.5158C36.3511 38.7713 36.308 39.0337 36.2927 39.2983C36.3808 39.4004 36.8348 39.3664 37.1804 39.3664C37.7158 39.3664 37.8919 39.3664 37.9529 39.0874C38.0817 38.543 38.2037 37.9034 38.3189 37.1277C38.3866 36.6582 38.4815 36.2227 38.556 35.7668C38.6063 35.401 38.6833 35.0394 38.7864 34.6849L39.8707 34.7461C40.8871 34.8006 42.4118 34.8005 42.4118 34.8005C42.4471 34.904 42.4699 35.0114 42.4796 35.1204C42.5134 35.3789 42.5405 35.6375 42.5677 35.8961C42.5948 36.1546 42.6286 36.4813 42.6693 36.7739C42.7913 37.6993 42.8523 38.3389 42.9675 39.0874C43.0013 39.3324 43.042 39.38 43.2182 39.3868C43.3944 39.3936 44.0043 39.3868 44.1262 39.3868C44.5328 39.3868 44.7496 39.4548 44.6887 39.0806C44.6683 38.9173 44.6209 38.5294 44.587 38.2913ZM42.2966 33.1811C41.619 33.1811 40.8126 33.1402 40.0943 33.0994C39.7389 33.1008 39.3838 33.0826 39.0304 33.045C39.0352 32.7306 39.0761 32.4178 39.1524 32.1128C39.315 31.0104 39.4776 30.1259 39.6267 29.1188C39.7893 27.996 39.9587 26.8665 40.1417 25.7165C40.2366 25.1518 40.3382 24.4509 40.4466 23.8385C40.4466 23.7772 40.677 22.8791 40.7855 22.3483C40.7893 22.3117 40.8025 22.2768 40.8239 22.247C40.8453 22.2171 40.8741 22.1934 40.9074 22.1782C40.9549 22.1782 41.0091 22.1782 41.0497 22.4163C41.1311 22.9131 41.2124 23.7024 41.2666 24.2059C41.3411 24.9408 41.558 26.7576 41.6122 27.0706C41.6664 27.3836 41.8155 28.7105 41.8494 28.9827C42.283 33.113 42.2627 32.5891 42.2966 33.1811Z" fill="#4A4640"/>
<path d="M101.231 26.9686C101.454 26.2881 101.604 25.9275 101.739 25.4988C101.929 24.9408 101.99 24.7299 102.18 24.1379C102.403 23.4575 102.518 23.1921 102.62 22.777C102.756 22.2735 102.999 21.593 103.088 21.2664C103.223 20.7629 103.44 20.0688 103.501 19.9055C103.577 19.5771 103.693 19.2594 103.847 18.9597C103.847 18.9189 103.914 18.8984 104.158 18.8984H105.317C105.541 18.8984 105.419 19.0549 105.317 19.5789C105.215 20.1028 105.026 20.5996 104.734 21.6202C104.443 22.6409 104.314 22.9811 104.057 23.8929C103.718 24.934 103.596 25.6349 103.271 26.6896C102.945 27.7443 102.701 28.5404 102.444 29.3365C102.434 29.4997 102.434 29.6633 102.444 29.8265C102.444 30.575 102.444 30.575 102.444 31.3235C102.444 31.6909 102.444 31.8746 102.444 32.2353C102.444 32.3373 102.444 32.7048 102.444 32.8068C102.422 33.1762 102.422 33.5466 102.444 33.916C102.484 34.474 102.444 34.8006 102.518 35.7532C102.593 36.7058 102.647 37.9579 102.654 38.8969C102.654 39.2507 102.735 39.4072 102.491 39.3936H101.543C101.365 39.4151 101.186 39.4012 101.014 39.3528C100.961 39.13 100.938 38.9012 100.946 38.6723C100.892 37.7265 100.878 36.7875 100.831 35.8621C100.831 35.3585 100.831 35.3381 100.784 34.5624C100.784 34.1269 100.75 33.6166 100.729 33.2015C100.729 32.3714 100.641 31.9223 100.621 31.0921C100.621 30.6362 100.621 30.4865 100.56 30.0782C100.56 30.0782 100.296 29.3978 100.106 29.0235C99.7468 28.3091 99.6858 28.139 99.4283 27.5742C99.1708 27.0094 98.7913 26.3766 98.5067 25.7778L98.3373 25.3763C98.195 25.0565 98.0663 24.6959 97.9375 24.4033C97.8494 24.1923 97.7546 24.0222 97.6326 23.7909C97.558 23.6616 97.5513 23.5663 97.4971 23.4575C97.4428 23.3486 97.3005 23.1308 97.2328 22.9539C96.8668 22.0557 96.8262 21.838 96.5551 21.1984C96.2965 20.6567 96.0702 20.1 95.8775 19.5313C95.7962 19.2863 95.6403 19.0209 95.952 18.9733C96.2926 18.9461 96.6347 18.9461 96.9753 18.9733C97.348 18.9733 97.5106 18.9189 97.6055 19.1434C97.8088 19.6333 98.0121 20.0416 98.2357 20.5451C98.3102 20.7152 98.5474 21.2256 98.6084 21.3685C98.6589 21.5014 98.7177 21.6309 98.7846 21.7563C98.8277 21.8464 98.8639 21.9397 98.893 22.0353C98.9485 22.2961 99.0544 22.5435 99.2047 22.7634C99.3026 22.9341 99.3887 23.1115 99.4622 23.2941C99.7265 23.8997 99.9704 24.5054 100.255 25.0973C100.525 25.7487 100.851 26.3749 101.231 26.9686Z" fill="#4A4640"/>
<path d="M71.6387 31.8678C71.6387 31.4731 71.7268 30.0306 71.7268 29.8945C71.7268 29.4862 71.6454 29.1256 71.6183 28.6833C71.5709 27.8463 71.5574 26.9686 71.4557 26.2881C71.3481 25.6599 71.1917 25.0411 70.9881 24.4373C70.9272 24.2604 70.8797 24.0562 70.8255 23.8725C70.7012 23.3574 70.505 22.8626 70.2427 22.4027C69.9562 21.9273 69.6369 21.4726 69.2873 21.0418C68.8464 20.4705 68.2837 20.0056 67.6406 19.6809C67.3344 19.5023 67.015 19.3476 66.6851 19.2182C66.4279 19.1009 66.157 19.0163 65.8788 18.9665C65.6546 18.932 65.4279 18.916 65.2011 18.9188C64.7403 18.9188 64.4354 18.9188 64.1847 19.191C63.9339 19.4632 63.9272 20.0756 63.9339 20.6336C63.9339 21.0078 63.9339 21.3957 63.9339 21.6474C63.9339 22.1442 63.9339 23.8861 63.9339 24.1107C63.8933 25.6077 63.9339 26.5671 63.9339 27.336C63.9339 27.6082 63.9339 28.4247 63.9339 28.5608C63.9746 29.391 63.9339 29.7312 63.9339 30.6022C63.9339 31.0649 63.9339 31.7317 63.9339 32.1944C63.9339 32.4598 63.9339 34.1949 63.9339 34.2358C63.9339 34.9162 63.9339 35.4878 63.9339 36.1955C63.9339 36.5357 63.9339 37.359 63.9339 37.638C63.9094 38.0414 63.9094 38.4459 63.9339 38.8492C63.9453 39.0035 64.0158 39.1474 64.1305 39.2507C64.3697 39.3692 64.6384 39.4142 64.903 39.38C65.2852 39.3966 65.6681 39.383 66.0482 39.3391C66.4846 39.2632 66.9058 39.1161 67.295 38.9037C67.5119 38.8016 67.9727 38.5158 68.2234 38.3593C68.6026 38.1261 68.9588 37.8573 69.2873 37.5564C69.7489 37.119 70.1298 36.6029 70.4122 36.0322C70.7796 35.3663 71.0511 34.6515 71.2185 33.9092C71.3963 33.2371 71.5365 32.5556 71.6387 31.8678ZM70.0937 29.4046C70.0937 29.8673 70.0937 30.2007 70.0937 30.9696C70.0658 31.718 69.9729 32.4625 69.8158 33.1947C69.7301 33.7341 69.5753 34.2602 69.355 34.7597C69.1448 35.1899 68.8756 35.5884 68.5554 35.9437C68.176 36.4498 67.6902 36.8657 67.1324 37.1617C66.6871 37.4121 66.217 37.6151 65.7297 37.7673C65.5874 37.8149 65.567 37.7673 65.567 37.604C65.567 37.1005 65.6077 36.3384 65.567 35.9369C65.5264 35.5354 65.567 34.9707 65.567 34.576C65.567 34.0452 65.567 33.4873 65.567 32.9633C65.567 32.3169 65.567 31.8066 65.567 31.1669C65.567 30.6702 65.567 30.017 65.567 29.5202C65.567 28.901 65.567 28.6084 65.567 27.9892C65.567 27.7511 65.567 26.9345 65.5264 26.7032C65.5264 25.8866 65.5264 25.771 65.5264 25.0905C65.5264 24.5325 65.5264 24.2331 65.5264 23.6003C65.5264 23.3758 65.5806 22.7157 65.5806 22.4912C65.5806 21.9741 65.6348 20.5927 65.6348 20.5927C66.2749 20.6881 66.8873 20.9201 67.4305 21.2732C67.9877 21.6274 68.4524 22.1104 68.7858 22.6817C68.888 22.8226 68.9765 22.973 69.0501 23.1308C69.2383 23.4883 69.3947 23.8617 69.5177 24.2468C69.6735 24.7299 69.7548 25.2062 69.8633 25.6961C69.9348 26.0081 69.989 26.3239 70.0259 26.6419C70.1004 27.2407 70.1004 27.581 70.1546 28.2818C70.053 28.3363 70.0937 28.9215 70.0937 29.4046Z" fill="#4A4640"/>
<path d="M75.1146 37.5768C75.2588 37.6112 75.4074 37.6227 75.5551 37.6108C76.2004 37.653 76.8478 37.653 77.4932 37.6108C77.928 37.5665 78.3662 37.5665 78.801 37.6108C79.0246 37.8149 78.9162 37.8149 78.9297 38.3321C78.9297 38.4205 78.9297 38.9241 78.9297 39.0125C78.9297 39.101 78.9297 39.3596 78.7807 39.3528C78.6316 39.346 78.103 39.3051 77.8862 39.3187C77.2966 39.3187 76.4022 39.3187 76.0295 39.3187C75.8736 39.3187 75.2366 39.3187 75.0808 39.3187C74.5723 39.3456 74.0624 39.3319 73.5561 39.2779C73.4341 39.1214 73.5561 39.0602 73.4612 38.8696C73.4107 38.2219 73.4107 37.5713 73.4612 36.9235C73.4612 36.7194 73.4612 33.8139 73.4138 33.079C73.4138 33.011 73.4138 32.9701 73.4138 32.9429V32.8681C73.4138 32.8068 73.4138 32.7864 73.4138 32.6911C73.468 32.0651 73.4138 30.5681 73.4138 30.4116C73.4612 30.0306 73.4883 28.1662 73.4951 27.8123C73.5019 27.4585 73.4951 25.213 73.4951 24.9136C73.4533 24.2338 73.4533 23.5521 73.4951 22.8723C73.4951 22.6817 73.4477 21.1303 73.4273 20.8309C73.3921 20.4507 73.3921 20.068 73.4273 19.6877C73.4273 19.4564 73.3731 19.0958 73.5561 19.0073C73.739 18.9188 73.9559 18.8508 74.4506 18.8848C74.498 18.8848 75.7042 18.8848 75.7448 18.8848C76.3208 18.8508 77.3373 18.8848 77.6219 18.8848C78.0353 18.8848 78.7197 18.8848 79.1263 18.8848C79.3431 18.8848 79.2821 19.3475 79.2618 19.6061C79.2618 19.7014 79.2618 20.4771 79.194 20.5247C79.0104 20.5597 78.8219 20.5597 78.6384 20.5247C78.3334 20.5247 77.6422 20.5247 77.4118 20.4907C76.7748 20.4598 76.1364 20.4712 75.5009 20.5247C75.2366 20.5247 75.1824 20.5247 75.2095 20.8241C75.2366 21.1235 75.2095 21.2392 75.2095 21.5045C75.2095 21.6542 75.2095 22.0353 75.2502 22.2326C75.2502 22.5865 75.2502 23.2601 75.2502 23.6548C75.2502 24.0494 75.3179 25.4035 75.345 25.8798C75.345 26.1656 75.345 26.676 75.345 26.9618C75.345 27.023 75.345 27.091 75.345 27.1523C75.345 27.3904 75.345 27.3904 75.6161 27.3972C75.8871 27.404 77.527 27.4585 77.8997 27.3972C77.9954 27.3788 78.0937 27.3795 78.1891 27.3994C78.2844 27.4192 78.3749 27.4578 78.4554 27.5129C78.5435 27.6354 78.4554 27.9212 78.5164 28.4928C78.5164 28.6016 78.5164 29.0575 78.4351 29.1052C78.0829 29.124 77.7301 29.124 77.378 29.1052C77.012 29.1052 76.5716 29.1052 76.2056 29.0712C75.9543 29.1074 75.7006 29.1256 75.4467 29.1256C75.3044 29.1256 75.2366 29.1664 75.2502 29.3093C75.2502 29.704 75.2095 30.3096 75.2502 30.711C75.2502 30.8812 75.2502 34.6781 75.2502 35.0183C75.2502 35.6511 75.2502 36.2771 75.2502 36.9099C75.1564 37.1194 75.1101 37.3472 75.1146 37.5768Z" fill="#4A4640"/>
<path d="M38.3394 12.0599C38.3394 11.9442 38.3394 11.1004 38.3394 10.9848C38.3394 10.8691 38.3733 9.70551 38.3394 9.5422C38.3293 9.35181 38.3293 9.16101 38.3394 8.97062C38.3394 8.71205 38.2852 7.34435 38.3394 7.24228C38.3394 6.88164 38.292 5.84055 38.2988 5.67724C38.3055 5.51393 38.2988 5.33702 38.2988 5.1601C38.2988 4.98318 38.2988 4.77224 38.3665 4.67698C38.4136 4.62443 38.4748 4.58663 38.5427 4.56811C38.7853 4.50188 39.0372 4.47658 39.2881 4.49326C39.6124 4.49142 39.931 4.57847 40.2097 4.74502C40.5187 4.93793 40.773 5.20741 40.9483 5.52754C41.1585 5.9609 41.2542 6.44126 41.2262 6.92247C41.2011 7.3192 41.0876 7.70522 40.8941 8.05201C40.7891 8.30678 40.6348 8.53807 40.4401 8.73246C40.3893 8.79192 40.327 8.84051 40.2571 8.87536L40.4265 8.98423C40.6378 9.14213 40.825 9.33009 40.9822 9.5422C41.2363 9.88012 41.4122 10.2706 41.4972 10.6854C41.6021 11.1014 41.6567 11.5286 41.6598 11.9578C41.6633 12.4161 41.5514 12.8678 41.3346 13.2711C41.2191 13.4561 41.0776 13.6234 40.9144 13.7678C40.7959 13.8743 40.6665 13.9678 40.5282 14.0468C40.3869 14.1291 40.2369 14.1953 40.0809 14.2441C39.8773 14.309 39.6643 14.3389 39.4507 14.3326H38.624C38.5766 14.3326 38.3326 14.3326 38.3191 14.1284C38.3191 14.0808 38.3191 13.5909 38.3191 13.5296C38.3191 13.4684 38.3394 12.1415 38.3394 12.0599ZM39.1119 13.482C39.1594 13.482 39.5727 13.482 39.6202 13.482C39.9116 13.4296 40.1794 13.2869 40.3859 13.0737C40.6038 12.8247 40.7157 12.4998 40.6976 12.1687C40.6976 12.0054 40.6976 11.7605 40.6976 11.5972C40.6891 11.2265 40.6157 10.8603 40.4808 10.5152C40.3891 10.2585 40.2408 10.0259 40.0471 9.83479L39.776 9.549C39.7389 9.51183 39.6952 9.48184 39.6473 9.46055C39.5875 9.43376 39.5229 9.41985 39.4575 9.41972H39.0645C39.0645 9.5354 39.0645 9.66468 39.0645 9.76675C39.0645 10.1682 39.0238 10.5357 39.0645 10.9371C39.1051 11.3386 39.0645 11.6176 39.0645 11.985C39.0984 12.4749 39.0645 12.9513 39.1119 13.482ZM39.1119 8.65081C39.2172 8.63239 39.3197 8.60037 39.4169 8.55555C39.7605 8.32659 40.0181 7.98889 40.1487 7.59611C40.2596 7.35286 40.3151 7.08788 40.3113 6.8204C40.3248 6.50086 40.267 6.18234 40.1419 5.88818C39.994 5.667 39.7807 5.49802 39.5321 5.40506C39.3491 5.3166 39.0713 5.40506 39.0645 5.60239C39.0577 5.79972 39.0645 6.16036 39.0645 6.3645C39.0645 6.56863 39.0645 6.89525 39.0645 7.1198C39.0645 7.45322 39.0645 7.8819 39.0645 8.331C39.1051 8.42626 39.0848 8.50792 39.0916 8.65081H39.1119Z" fill="#4A4640"/>
<path d="M43.3673 13.4684C43.437 13.4784 43.5077 13.4784 43.5774 13.4684C43.8887 13.492 44.2013 13.492 44.5125 13.4684C44.7219 13.4446 44.9333 13.4446 45.1427 13.4684C45.2512 13.5637 45.197 13.5637 45.2037 13.8155C45.2037 13.8563 45.2037 14.1013 45.2037 14.1489C45.2037 14.1965 45.2037 14.319 45.1292 14.3122C45.0546 14.3054 44.8039 14.3122 44.7023 14.3122C44.4177 14.3122 43.984 14.3122 43.8078 14.3122C43.6316 14.3122 43.4215 14.3122 43.347 14.3122C43.1033 14.329 42.8588 14.329 42.6152 14.3122C42.5542 14.2373 42.6152 14.2033 42.5677 14.1149C42.5442 13.8023 42.5442 13.4884 42.5677 13.1758C42.5677 13.0806 42.5677 11.6788 42.5677 11.325C42.5723 11.3026 42.5723 11.2794 42.5677 11.257C42.5677 11.257 42.5677 11.2161 42.5677 11.1753C42.5677 10.8691 42.5677 10.1478 42.5677 10.073C42.5677 9.88927 42.6016 8.99107 42.6084 8.82096C42.6152 8.65085 42.6084 7.56893 42.6084 7.42603C42.5901 7.10421 42.5901 6.78161 42.6084 6.45979C42.6084 6.36453 42.6084 5.62284 42.6084 5.47995C42.5909 5.29664 42.5909 5.11208 42.6084 4.92878C42.6084 4.8131 42.6084 4.64299 42.6694 4.59536C42.7304 4.54773 42.8591 4.51371 43.0963 4.53412H43.7197C43.9975 4.53412 44.4854 4.53412 44.6277 4.53412C44.77 4.53412 45.1563 4.53412 45.3528 4.53412C45.5493 4.53412 45.4273 4.75867 45.4206 4.88115C45.4138 5.00363 45.4206 5.30303 45.4206 5.32344C45.4206 5.34386 45.2308 5.32344 45.1495 5.32344C45.0682 5.32344 44.6684 5.32344 44.56 5.32344C44.2532 5.3001 43.9451 5.3001 43.6384 5.32344C43.5096 5.32344 43.4893 5.32344 43.4961 5.46634C43.5029 5.60923 43.4961 5.66367 43.4961 5.79295C43.4961 5.92224 43.4961 6.05152 43.4961 6.14679C43.4961 6.24205 43.4961 6.64352 43.4961 6.82724C43.4961 7.01096 43.4961 7.671 43.5435 7.89555C43.591 8.12009 43.5435 8.2834 43.5435 8.41949C43.4784 8.43376 43.4178 8.46417 43.3673 8.50795C43.3673 8.62363 43.3673 8.62363 43.5029 8.63043C43.6384 8.63724 44.4244 8.63043 44.6006 8.63043C44.6946 8.61229 44.7919 8.63183 44.8717 8.68487C44.9123 8.74611 44.8717 8.8822 44.8717 9.15438C44.8717 9.20881 44.8717 9.42656 44.831 9.45378C44.7904 9.481 44.4516 9.45378 44.3228 9.45378C44.1355 9.46396 43.9477 9.46396 43.7604 9.45378C43.6386 9.46443 43.5162 9.46443 43.3944 9.45378C43.3267 9.45378 43.2928 9.45378 43.2996 9.54904C43.2996 9.73957 43.2996 10.0254 43.2996 10.2295C43.2996 10.3111 43.2996 12.1416 43.2996 12.2708C43.2996 12.5702 43.2996 12.8764 43.2996 13.1758C43.3088 13.276 43.3316 13.3744 43.3673 13.4684Z" fill="#4A4640"/>
<path d="M46.9045 13.4684C46.9742 13.4783 47.0449 13.4783 47.1146 13.4684C47.4259 13.4919 47.7385 13.4919 48.0497 13.4684C48.2591 13.4445 48.4706 13.4445 48.68 13.4684C48.7884 13.5636 48.7342 13.5636 48.7409 13.8154C48.7409 13.8562 48.7409 14.1012 48.7409 14.1488C48.7409 14.1965 48.7409 14.3189 48.6664 14.3121C48.5919 14.3053 48.3411 14.3121 48.2395 14.3121C47.9549 14.3121 47.5212 14.3121 47.3382 14.3121C47.2637 14.3121 46.9587 14.3121 46.8842 14.3121C46.6405 14.3289 46.396 14.3289 46.1524 14.3121C46.0914 14.2373 46.1524 14.2033 46.1049 14.1148C46.078 13.8024 46.078 13.4882 46.1049 13.1758C46.1049 13.0805 46.1049 11.6788 46.1049 11.325C46.1025 11.3023 46.1025 11.2795 46.1049 11.2569C46.1049 11.2569 46.1049 11.2161 46.1049 11.1753C46.1049 10.8691 46.1049 10.1478 46.1049 10.0729C46.1049 9.8892 46.1388 8.99101 46.1456 8.8209C46.1524 8.65078 46.1456 7.56887 46.1456 7.42597C46.1239 7.10426 46.1239 6.78145 46.1456 6.45973C46.1456 6.36447 46.1456 5.62278 46.1456 5.47989C46.1278 5.29659 46.1278 5.11201 46.1456 4.92872C46.1456 4.81304 46.1456 4.64293 46.2066 4.5953C46.2676 4.54767 46.4031 4.51365 46.6403 4.53406H47.2637C47.5415 4.53406 48.0294 4.53406 48.1649 4.53406C48.3005 4.53406 48.7003 4.53406 48.8968 4.53406C49.0933 4.53406 48.9713 4.75861 48.9578 4.88109C48.9442 5.00357 48.9578 5.30297 48.9578 5.32338C48.9578 5.3438 48.768 5.32338 48.6867 5.32338C48.6054 5.32338 48.2056 5.32338 48.0904 5.32338C47.7859 5.3002 47.4801 5.3002 47.1756 5.32338C47.0468 5.32338 47.0197 5.32338 47.0333 5.46628C47.0468 5.60917 47.0333 5.66361 47.0333 5.79289C47.0333 5.92218 47.0333 6.05146 47.0333 6.14673C47.0333 6.24199 47.0333 6.64346 47.0333 6.82718C47.0333 7.0109 47.0333 7.67094 47.0807 7.89548C47.1282 8.12003 47.0807 8.28334 47.0807 8.41943C47.0807 8.41943 47.0807 8.48067 47.0807 8.50789C47.0807 8.53511 47.0807 8.62357 47.2095 8.63037C47.3382 8.63718 48.1378 8.63037 48.314 8.63037C48.3594 8.62079 48.4063 8.62067 48.4518 8.63004C48.4973 8.6394 48.5403 8.65804 48.5783 8.68481C48.6257 8.74605 48.5783 8.88214 48.6122 9.15432C48.6122 9.20875 48.6122 9.4265 48.5715 9.45372C48.5309 9.48093 48.1921 9.45372 48.0633 9.45372C47.8737 9.4639 47.6837 9.4639 47.4941 9.45372C47.3746 9.46436 47.2544 9.46436 47.1349 9.45372C47.0604 9.45372 47.0333 9.45372 47.0333 9.54898C47.0333 9.7395 47.0333 10.0253 47.0333 10.2294C47.0333 10.3111 47.0333 12.1415 47.0333 12.2708C47.0333 12.5702 47.0333 12.8764 47.0333 13.1758C46.9697 13.2627 46.9257 13.3626 46.9045 13.4684Z" fill="#4A4640"/>
<path d="M59.529 4.47967H59.7255C60.0103 4.49242 60.2854 4.58688 60.5183 4.75185C60.7411 4.88927 60.9346 5.06966 61.0876 5.2826C61.1775 5.41443 61.2568 5.55323 61.3247 5.69768C61.4046 5.86818 61.4748 6.04311 61.5348 6.22163C61.5348 6.22163 61.589 6.40535 61.5958 6.41215V6.50741C61.6568 6.75918 61.7449 7.37839 61.772 7.63696C61.8262 8.16091 61.833 8.6032 61.8398 8.86858V9.07271C61.8398 9.21561 61.8398 9.97771 61.8398 10.0798V10.1478C61.8398 10.3384 61.8398 10.8283 61.8398 11.1821C61.8398 11.3114 61.7381 11.9646 61.7245 12.0191V12.0667C61.652 12.4287 61.5359 12.7806 61.379 13.1146C61.1904 13.491 60.9108 13.8139 60.5658 14.0536C60.2661 14.2388 59.9215 14.3377 59.5697 14.3394C59.3823 14.3411 59.1955 14.3182 59.014 14.2714C58.7425 14.2013 58.4902 14.0711 58.2754 13.8903C58.0986 13.7434 57.9494 13.566 57.8349 13.3664C57.6642 13.0429 57.5257 12.7033 57.4215 12.3525V12.2368C57.4215 12.1552 57.3809 12.0803 57.3673 12.0191C57.3199 11.7877 57.2386 11.1685 57.225 10.9848C57.2115 10.8011 57.225 9.88245 57.225 9.73955C57.225 9.59666 57.225 9.37211 57.225 9.21561C57.225 9.0591 57.225 8.92982 57.225 8.73249C57.225 8.53516 57.225 8.13369 57.225 7.86151C57.225 7.80707 57.225 7.72542 57.225 7.62335C57.225 7.37159 57.2792 7.05858 57.3063 6.9429C57.3673 6.58226 57.4351 6.26245 57.4825 6.09234C57.5798 5.72519 57.7634 5.38684 58.0179 5.10569C58.2688 4.78806 58.6245 4.57088 59.0208 4.49328C59.1346 4.47 59.2502 4.45635 59.3664 4.45245L59.529 4.47967ZM60.0914 13.3255C60.3397 13.1968 60.5325 12.9814 60.6336 12.7199C60.7588 12.4618 60.8543 12.1901 60.9182 11.9102V11.8762C60.9182 11.7809 61.0063 11.257 61.013 11.1957C61.013 10.8759 61.013 10.3792 61.013 10.1887V10.1138C61.013 9.97771 61.013 9.31768 61.013 9.22922C61.013 9.14076 61.013 9.07952 61.013 8.94343C61.0142 8.557 60.9938 8.17081 60.952 7.78666C60.9201 7.45081 60.8704 7.11691 60.803 6.7864V6.72516C60.7136 6.39619 60.5814 6.08047 60.4099 5.78614C60.3245 5.67048 60.2189 5.57135 60.0982 5.49354C59.9781 5.41487 59.841 5.3659 59.6984 5.35065C59.6306 5.35065 59.5629 5.35065 59.4883 5.35065C59.4049 5.34355 59.321 5.34355 59.2376 5.35065C58.9996 5.38422 58.7837 5.50849 58.6345 5.69768C58.4815 5.87307 58.3683 6.07968 58.3025 6.30328C58.3025 6.38493 58.2279 6.60948 58.1466 7.07899C58.1466 7.19467 58.0924 7.52129 58.0721 7.75944C58.0721 7.85471 58.0721 7.94316 58.0721 8.00441C58.0588 8.26508 58.0588 8.52625 58.0721 8.78692C58.0721 8.99786 58.0721 9.15437 58.0721 9.29726C58.0721 9.44016 58.0721 9.63749 58.0721 9.78038C58.0721 9.92328 58.0721 10.7806 58.0721 10.9303C58.0721 11.08 58.1534 11.6516 58.194 11.8558C58.2031 11.9224 58.2167 11.9883 58.2347 12.0531C58.2347 12.1143 58.2347 12.1756 58.2821 12.2232C58.3631 12.4937 58.4698 12.7557 58.6006 13.0057C58.6638 13.1053 58.7389 13.1967 58.8242 13.2779C58.9463 13.3865 59.0928 13.4636 59.2512 13.5024C59.375 13.5164 59.5 13.5164 59.6239 13.5024C59.7895 13.4863 59.9493 13.4328 60.0914 13.3459V13.3255Z" fill="#4A4640"/>
<path d="M64.8893 4.49325H65.0858C65.3731 4.50354 65.6511 4.59817 65.8854 4.76543C66.1043 4.90266 66.2952 5.08047 66.4479 5.28938C66.5388 5.42291 66.6182 5.56406 66.685 5.71126C66.7707 5.87918 66.841 6.05455 66.8951 6.23521C66.8951 6.23521 66.9561 6.41212 66.9561 6.42573C66.9578 6.45746 66.9578 6.48927 66.9561 6.521C67.0171 6.76596 67.1052 7.39197 67.1323 7.65054C67.1865 8.16768 67.1933 8.61678 67.2 8.88216C67.1953 8.94785 67.1953 9.0138 67.2 9.07949C67.2 9.22919 67.2 9.98449 67.2 10.0866V10.1614C67.2 10.3519 67.2 10.8419 67.1594 11.1957C67.1594 11.3182 67.0577 11.9714 67.0442 12.0326V12.0803C66.9706 12.442 66.8546 12.7938 66.6986 13.1282C66.5103 13.5047 66.2306 13.8277 65.8854 14.0672C65.5835 14.2472 65.2403 14.3457 64.8893 14.353C64.7023 14.3479 64.5163 14.3251 64.3336 14.2849C64.063 14.2144 63.8125 14.0816 63.6018 13.8971C63.4266 13.7512 63.2776 13.5763 63.1613 13.3799C62.99 13.0576 62.8537 12.7177 62.7547 12.3661V12.2504C62.7298 12.1769 62.7094 12.1019 62.6937 12.0258C62.6531 11.7945 62.565 11.1821 62.5514 10.9916C62.5379 10.801 62.5514 9.88922 62.5514 9.75313C62.5514 9.61704 62.5514 9.38569 62.5514 9.22919C62.5514 9.07268 62.5514 8.9434 62.5514 8.74607C62.5485 8.4552 62.5621 8.16441 62.5921 7.87509C62.5921 7.82065 62.5921 7.7322 62.5921 7.63693C62.5921 7.38517 62.6531 7.06536 62.6802 6.91566C62.7412 6.56182 62.8022 6.23521 62.8564 6.0719C62.9481 5.72583 63.1199 5.40641 63.3578 5.13968C63.6134 4.82068 63.9737 4.60356 64.3743 4.52728C64.4881 4.504 64.6037 4.49034 64.7199 4.48645L64.8893 4.49325ZM65.4585 13.3391C65.7038 13.2086 65.8939 12.9935 65.9938 12.7335C66.12 12.471 66.2155 12.1947 66.2784 11.9102V11.8693C66.2784 11.7741 66.3665 11.2569 66.3733 11.1889C66.3733 10.8691 66.3733 10.3655 66.3733 10.1818V10.1002C66.3733 9.97088 66.3733 9.31084 66.3733 9.22238C66.3733 9.13392 66.3733 9.07268 66.3733 8.92979C66.3733 8.67802 66.3733 8.24934 66.3123 7.77302C66.2787 7.43924 66.2267 7.10757 66.1565 6.77957C66.1565 6.77957 66.1565 6.73193 66.1565 6.71152C66.0653 6.38857 65.9356 6.07785 65.7702 5.78611C65.6848 5.67046 65.5792 5.57132 65.4585 5.49352C65.3369 5.419 65.2004 5.37251 65.0587 5.35743H64.6047C64.3672 5.39794 64.1514 5.52074 63.9948 5.70446C63.8425 5.88183 63.7314 6.09102 63.6695 6.31686C63.5999 6.56963 63.5456 6.82641 63.5069 7.08577C63.5069 7.20825 63.4527 7.53487 63.4324 7.76622C63.4324 7.86829 63.4324 7.95675 63.4324 8.01118C63.4324 8.24934 63.4324 8.58276 63.4324 8.8005C63.4324 9.01825 63.4324 9.16795 63.4324 9.31084C63.4324 9.45373 63.4324 9.65107 63.4324 9.79396C63.4324 9.93685 63.4324 10.7942 63.4324 10.9439C63.4324 11.0936 63.5137 11.6652 63.5543 11.8693C63.5543 11.8693 63.5543 12.019 63.595 12.0599C63.6357 12.1007 63.595 12.1891 63.6424 12.23C63.7257 12.5028 63.8347 12.7671 63.9677 13.0193C64.0266 13.12 64.0996 13.2117 64.1845 13.2915C64.3083 13.3975 64.4542 13.4743 64.6115 13.516C64.7353 13.5298 64.8603 13.5298 64.9842 13.516C65.1514 13.4974 65.3129 13.4442 65.4585 13.3595V13.3391Z" fill="#4A4640"/>
<path d="M54.5958 9.35171C54.5212 9.35171 54.5009 9.35171 54.5009 9.39934C54.5009 9.56945 54.5009 9.72596 54.5009 9.89607C54.5009 10.2363 54.5009 10.454 54.5009 10.7943C54.5009 11.1345 54.5009 11.2706 54.5009 11.7605C54.5009 11.917 54.5416 12.7812 54.5009 12.9785C54.4602 13.1758 54.5009 13.3187 54.5009 13.4684C54.5009 13.6181 54.5009 13.8155 54.5009 13.9107C54.5009 14.006 54.5416 14.1285 54.5009 14.2714C54.4602 14.4143 54.4399 14.2714 54.3789 14.3326C54.3179 14.3938 53.7894 14.3326 53.7555 14.3326C53.7216 14.3326 53.7555 13.8971 53.7555 13.7882C53.7555 13.6794 53.7555 13.3528 53.7555 12.9581C53.7555 12.8969 53.7555 12.7472 53.7555 12.475C53.7555 12.3253 53.7555 12.0395 53.7555 11.7945C53.7555 11.5496 53.7555 11.4815 53.7555 11.1141C53.7555 11.0324 53.7555 10.4336 53.7555 10.3248C53.7555 10.0526 53.7555 9.78039 53.7555 9.50821C53.7656 9.36323 53.7656 9.21771 53.7555 9.07272V8.26979C53.7452 8.09303 53.7452 7.91581 53.7555 7.73904C53.7654 7.5668 53.7654 7.39414 53.7555 7.2219C53.7658 7.11554 53.7658 7.00844 53.7555 6.90209C53.7555 6.57547 53.7148 5.8678 53.7148 5.84739C53.7555 5.62964 53.7148 5.4051 53.7691 5.16694C53.7878 5.01126 53.8509 4.86431 53.9506 4.74364C54.0503 4.62298 54.1826 4.5337 54.3315 4.48649C54.5391 4.44054 54.7541 4.44054 54.9617 4.48649C55.2301 4.54259 55.4797 4.66674 55.6868 4.84713C55.7952 4.94919 55.8765 5.06487 55.9849 5.16694C56.0957 5.30211 56.1807 5.45667 56.2356 5.62284C56.2763 5.7181 56.2966 5.81337 56.3305 5.91543C56.3988 6.13571 56.4331 6.36519 56.4322 6.59588C56.4388 6.87481 56.3999 7.15295 56.317 7.41923C56.2467 7.69554 56.1347 7.95943 55.9849 8.20175L55.8833 8.35825C55.7545 8.50114 55.7477 8.5896 55.6122 8.71889C55.4767 8.84818 55.3005 9.01829 55.3208 9.04551C55.3886 9.37893 55.558 9.60347 55.6393 9.9437C55.7206 10.2839 55.8697 10.665 55.9646 11.0324C56.0595 11.3999 56.1272 11.5428 56.2492 11.9851C56.3377 12.2601 56.4123 12.5394 56.4728 12.822C56.5609 13.1486 56.6219 13.3528 56.7235 13.6726C56.7859 13.8234 56.8159 13.9857 56.8116 14.1489C56.8116 14.2986 56.5677 14.2646 56.3915 14.2646C56.2863 14.2845 56.1782 14.2845 56.073 14.2646C55.9431 14.0133 55.856 13.7419 55.8155 13.4616C55.8155 13.4616 55.5038 12.2232 55.3954 11.8626C55.287 11.5019 55.0769 10.7398 55.0023 10.454C54.9142 10.1366 54.8055 9.82516 54.6771 9.52182C54.6364 9.48099 54.6364 9.44017 54.5958 9.35171ZM54.5009 7.99081C54.491 8.16078 54.491 8.33118 54.5009 8.50114C54.5009 8.57599 54.5348 8.59641 54.6025 8.56919C54.7179 8.52171 54.8169 8.44126 54.8872 8.33784C55.0614 8.11137 55.2156 7.87002 55.3479 7.61656C55.4722 7.40768 55.5551 7.17661 55.5919 6.93611C55.6364 6.7115 55.6364 6.48027 55.5919 6.25566C55.5589 6.09036 55.4894 5.93459 55.3886 5.79976C55.3127 5.69561 55.2213 5.60381 55.1175 5.52758C55.0164 5.45618 54.8956 5.41814 54.772 5.41871C54.7245 5.41871 54.5551 5.41871 54.528 5.45953C54.5114 5.55635 54.5114 5.6553 54.528 5.75213C54.528 5.90863 54.528 6.11276 54.528 6.27607C54.5628 6.72903 54.5628 7.18401 54.528 7.63697C54.5125 7.76345 54.5035 7.89063 54.5009 8.01803V7.99081Z" fill="#4A4640"/>
<path d="M51.6212 6.84086C51.6212 7.28315 51.5535 10.9236 51.5603 10.9236C51.567 10.9236 51.5603 11.4747 51.5603 11.4951C51.5603 11.5156 51.5603 11.917 51.5603 12.4818V13.6454C51.5603 13.6794 51.5603 13.8495 51.5603 14.0877C51.5638 14.1466 51.5638 14.2057 51.5603 14.2646C51.5671 14.2821 51.5671 14.3015 51.5603 14.319C51.5603 14.319 51.4857 14.319 51.3908 14.319H51.1266C50.8352 14.319 50.8081 14.319 50.8081 14.319V13.8291C50.8081 13.5977 50.8081 13.2371 50.8081 13.0193C50.8081 12.8016 50.8081 12.4478 50.8081 12.2164C50.8081 12.2164 50.8555 11.5836 50.8623 11.2638C50.8623 11.2025 50.8623 11.1345 50.8623 11.0665C50.8623 10.7534 50.8623 10.4472 50.8623 10.1342C50.8623 9.82123 50.8623 9.65792 50.8623 9.39255C50.8623 9.12717 50.8623 8.90943 50.8623 8.67127C50.8623 8.58281 50.8623 8.49435 50.8623 8.4127C50.8623 8.14052 50.8623 7.79349 50.8623 7.52811C50.8623 7.42604 50.8623 7.32398 50.8623 7.22191C50.8623 6.97014 50.8623 6.71838 50.8623 6.46661C50.8623 6.41898 50.8623 6.20804 50.8623 6.08556C50.8793 5.85906 50.8793 5.6316 50.8623 5.40511C50.7411 5.38564 50.6176 5.38564 50.4964 5.40511C50.2931 5.40511 50.205 5.40511 49.9068 5.40511C49.7564 5.4286 49.6032 5.4286 49.4528 5.40511C49.4413 5.26699 49.4413 5.12815 49.4528 4.99003C49.4285 4.85732 49.4285 4.72127 49.4528 4.58856C49.5739 4.56813 49.6976 4.56813 49.8187 4.58856C50.1779 4.58856 50.3541 4.58856 50.6726 4.58856C50.991 4.58856 51.2824 4.58856 51.6212 4.58856C51.9601 4.58856 52.204 4.58856 52.4615 4.58856C52.5428 4.58856 52.78 4.58856 53.0985 4.58856C53.295 4.58856 53.1934 4.67022 53.2205 4.84033C53.2522 5.01581 53.2522 5.1956 53.2205 5.37108C53.0965 5.41426 52.9653 5.43275 52.8342 5.42552C52.5903 5.42552 52.5157 5.42552 52.1159 5.42552H51.7364C51.7364 5.57522 51.7364 5.92225 51.7364 6.25567C51.6077 6.20804 51.6212 6.84086 51.6212 6.84086Z" fill="#4A4640"/>
<path d="M69.4293 6.84082C69.4293 7.28311 69.3616 10.9235 69.3684 10.9235C69.3751 10.9235 69.3684 11.4747 69.3684 11.4951C69.3684 11.5155 69.3684 11.917 69.3684 12.4818V13.6453C69.3684 13.6793 69.3684 13.8495 69.3684 14.0876C69.3719 14.1465 69.3719 14.2056 69.3684 14.2645C69.3752 14.282 69.3752 14.3015 69.3684 14.319C69.3684 14.319 69.2938 14.319 69.199 14.319H68.9347C68.6433 14.319 68.6162 14.319 68.6162 14.319V12.9989C68.6162 12.7675 68.6162 12.4273 68.6162 12.196C68.6162 12.196 68.6636 11.5631 68.6704 11.2433C68.6704 11.1821 68.6704 11.1141 68.6704 11.046C68.6704 10.733 68.6704 10.4268 68.6704 10.1138C68.6704 9.80078 68.6704 9.63747 68.6704 9.3721C68.6704 9.10672 68.6704 8.88898 68.6704 8.65082C68.6704 8.56236 68.6704 8.4739 68.6704 8.39225C68.6704 8.12007 68.6704 7.77304 68.6704 7.50766C68.6704 7.4056 68.6704 7.30353 68.6704 7.20146C68.6704 6.94969 68.6704 6.69793 68.6704 6.44616C68.6704 6.39853 68.6704 6.18759 68.6704 6.06511C68.6874 5.83861 68.6874 5.61115 68.6704 5.38466C68.5492 5.3652 68.4257 5.3652 68.3045 5.38466C68.1012 5.38466 68.0131 5.38466 67.7149 5.38466C67.5645 5.40815 67.4114 5.40815 67.2609 5.38466C67.2494 5.24654 67.2494 5.1077 67.2609 4.96958C67.2366 4.83688 67.2366 4.70083 67.2609 4.56812C67.382 4.54769 67.5057 4.54769 67.6268 4.56812C67.986 4.56812 68.1622 4.56812 68.4807 4.56812C68.7991 4.56812 69.0905 4.56812 69.4293 4.56812C69.7682 4.56812 70.0121 4.56812 70.2696 4.56812C70.3509 4.56812 70.5949 4.56812 70.9066 4.56812C71.1031 4.56812 71.0015 4.64977 71.0286 4.81988C71.0603 4.99536 71.0603 5.17516 71.0286 5.35064C70.9046 5.39382 70.7734 5.41231 70.6423 5.40507C70.3984 5.40507 70.3238 5.40507 69.924 5.40507H69.5445C69.5445 5.55477 69.5445 5.9018 69.5445 6.23522C69.4226 6.208 69.4293 6.84082 69.4293 6.84082Z" fill="#4A4640"/>
</svg>
